<?xml version="1.0" ?><svg enable-background="new 0 0 172 213.9965" id="bing" version="1.1" viewBox="0 0 172 213.9965" xml:space="preserve" xmlns="http://www.w3.org/2000/svg" xmlns:xlink="http://www.w3.org/1999/xlink"><path d="M169.1755,84.1721l-104-32c-1.4804-0.4452-3.1132-0.0036-4.156,1.1564  c-1.0432,1.168-1.3124,2.832-0.6875,4.2616l20,46c0.3867,0.8908,1.0859,1.6136,1.9647,2.0276l26.9884,12.6992L8.7771,174.9653  l41.9844-40.0744C51.5507,134.1333,52,133.0901,52,131.9965v-116c0-1.8048-1.2073-3.3828-2.9493-3.8592l-44-12  C3.8631-0.1831,2.5663,0.0629,1.5703,0.8169C0.5819,1.5745,0,2.7505,0,3.9965v170c0,1.6016,0.9531,3.0468,2.4255,3.6756  c0.508,0.2188,1.0432,0.3244,1.5745,0.3244c0.2071,0,0.4023-0.082,0.6055-0.1172c-0.3516,0.5664-0.5664,1.2188-0.6015,1.9024  c-0.0705,1.3672,0.5583,2.6756,1.6715,3.4688l42,30c0.6916,0.496,1.508,0.746,2.3245,0.746c0.7031,0,1.4099-0.1876,2.0391-0.5584  l118-70c1.2148-0.7228,1.9609-2.0276,1.9609-3.4416v-52C172,86.2385,170.8555,84.6881,169.1755,84.1721z" fill="#FCC24C"/></svg>