<?xml version="1.0" ?><!DOCTYPE svg  PUBLIC '-//W3C//DTD SVG 1.1//EN'  'http://www.w3.org/Graphics/SVG/1.1/DTD/svg11.dtd'><svg height="512px" style="enable-background:new 0 0 512 512;" version="1.1" viewBox="0 0 512 512" width="512px" xml:space="preserve" xmlns="http://www.w3.org/2000/svg" xmlns:xlink="http://www.w3.org/1999/xlink"><g id="形状_2_3_" style="enable-background:new    ;"><g id="形状_2"><g><polygon points="79.839,213.174 98.125,252.825 125.146,265.047      27.682,316.324 67.617,280.727 67.617,179.24 26.489,166.643 26.489,317.582 67.365,346.235 170.17,285 170.17,240.855    " style="fill-rule:evenodd;clip-rule:evenodd;fill:#F4BD27;"/></g></g></g><g id="形状_2_2_" style="enable-background:new    ;"><g id="形状_2_1_"><g><path d="M255.811,231.805c-11.631,0-20.464,5.091-26.504,15.274     h-0.299v-46.658l-12.28-3.656v113.504h12.28v-11.079h0.299c5.191,8.585,12.853,12.878,22.985,12.878     c10.831,0,19.367-3.855,25.607-11.568c6.24-7.711,9.357-17.98,9.357-30.81c0-11.529-2.781-20.728-8.348-27.589     C273.344,235.236,265.644,231.805,255.811,231.805z M268.352,293.2c-4.217,5.689-10.046,8.533-17.482,8.533     c-6.339,0-11.568-2.208-15.686-6.623c-4.118-4.419-6.176-9.798-6.176-16.137v-10.708c0-7.485,2.171-13.712,6.513-18.678     c4.342-4.969,10.083-7.451,17.22-7.451c6.739,0,12.079,2.421,16.021,7.262c3.943,4.844,5.916,11.53,5.916,20.067     C274.678,279.598,272.571,287.509,268.352,293.2z M303.313,310.269h12.28v-76.666h-12.28V310.269z M309.602,200.145     c-2.195,0.001-4.068,0.762-5.614,2.285c-1.546,1.521-2.319,3.431-2.319,5.727s0.773,4.192,2.319,5.689s3.419,2.247,5.614,2.247     c2.248,0,4.157-0.773,5.729-2.321c1.571-1.548,2.357-3.418,2.357-5.615c0-2.296-0.786-4.206-2.357-5.727     C313.759,200.906,311.85,200.146,309.602,200.145z M373.736,231.805c-10.979,0-19.365,4.842-25.157,14.524h-0.301v-12.727     h-12.276v76.666h12.276v-43.722c0-7.04,2.012-12.867,6.03-17.482c4.017-4.619,9.097-6.928,15.236-6.928     c11.878,0,17.818,8.137,17.818,24.41v43.722h12.278v-46.867c0-10.233-2.222-18.059-6.663-23.474S382.123,231.805,373.736,231.805     z M474.234,233.603v10.009h-0.303c-4.992-8.286-12.475-12.028-22.808-12.028c-10.881,0-19.632,4.064-25.897,11.752     c-6.263,7.688-9.646,17.919-9.646,30.945c0,11.481,3.16,20.754,8.974,27.567c5.815,6.813,13.489,10.22,23.021,10.22     c11.732,0,20.517-4.894,26.355-14.674h0.303v8.385c0,20.064-10.092,29.973-28.337,29.973c-6.892,0-13.81-2.074-21.318-5.781     l-3.359,10.999c7.089,3.593,15.377,5.389,24.861,5.389c26.954,0,40.43-14.075,40.43-42.227v-70.528H474.234z M474.234,275.604     c-0.153,13.604-8.141,25.563-23.287,25.563c-15.123,0-22.537-13-22.537-27.585c0.126-15.272,6.486-31.446,24.258-31.446     c11.706,0,21.566,10.088,21.566,22.163V275.604z" style="fill-rule:evenodd;clip-rule:evenodd;fill:#F4BD27;"/></g></g></g></svg>